<?xml version="1.0" standalone="no"?>
<!DOCTYPE svg PUBLIC "-//W3C//DTD SVG 20010904//EN"
 "http://www.w3.org/TR/2001/REC-SVG-20010904/DTD/svg10.dtd">
<svg version="1.0" xmlns="http://www.w3.org/2000/svg"
 width="3000.000000pt" height="3000.000000pt" viewBox="0 0 3000.000000 3000.000000"
 preserveAspectRatio="xMidYMid meet">

<g transform="translate(0.000000,3000.000000) scale(0.100000,-0.100000)"
fill="#000000" stroke="none">
<path d="M3659 26836 c46 -76 169 -283 179 -302 11 -20 10 -21 -31 -13 -68 13
-96 10 -118 -12 -31 -31 -22 -58 77 -215 452 -720 922 -1391 1667 -2378 1167
-1548 1397 -1858 1773 -2386 559 -786 1175 -1724 1784 -2715 267 -435 861
-1430 1012 -1695 1227 -2155 2197 -4068 3273 -6455 111 -247 326 -727 478
-1065 361 -807 580 -1289 775 -1705 87 -187 174 -383 192 -435 18 -52 45 -111
59 -130 43 -59 198 -210 215 -210 16 0 167 135 212 189 11 14 34 64 49 111 38
117 89 234 260 600 163 349 471 1024 840 1845 396 880 724 1599 880 1930 80
171 208 441 283 600 180 382 642 1310 927 1860 1170 2260 2357 4277 3663 6220
640 953 1035 1502 2092 2910 1135 1511 1509 2045 1957 2789 136 226 153 258
153 290 0 42 -26 58 -87 54 -29 -1 -53 -1 -53 2 0 3 33 62 73 130 40 69 85
146 99 171 l27 45 -32 -4 c-18 -2 -196 -33 -397 -68 -977 -173 -2023 -341
-2845 -459 -2728 -390 -5134 -560 -7270 -514 -784 17 -746 17 -1425 0 -1316
-33 -2801 18 -4315 150 -1791 155 -3679 414 -6045 828 -184 33 -349 61 -367
63 l-32 4 18 -30z m3020 -2037 c88 -28 141 -39 186 -39 34 0 250 -31 481 -69
1959 -324 3551 -508 5064 -586 572 -29 922 -36 1605 -33 380 1 1124 1 1655 -1
1122 -4 1620 9 2465 64 1330 87 2877 278 4615 570 179 30 354 55 388 55 48 0
103 13 237 55 96 30 179 55 185 55 19 0 -123 -230 -383 -620 -295 -442 -502
-727 -1202 -1660 -1117 -1489 -1524 -2076 -2338 -3375 -148 -236 -275 -437
-281 -446 -8 -12 -11 25 -11 155 l0 171 -56 -125 c-102 -228 -129 -282 -314
-640 -196 -378 -301 -597 -370 -774 -24 -60 -50 -113 -59 -118 -17 -10 -102
-3 -1061 87 -912 85 -938 87 -946 73 -30 -48 -69 -201 -88 -343 -123 -916
-497 -3570 -516 -3670 -15 -71 -98 -467 -186 -880 -178 -831 -256 -1216 -323
-1590 l-44 -250 -120 -250 c-159 -334 -240 -497 -252 -509 -6 -6 -49 72 -124
225 l-114 234 -41 250 c-96 589 -152 1035 -275 2220 -36 341 -81 746 -100 900
-52 414 -88 791 -161 1665 -77 924 -104 1218 -150 1630 -47 411 -47 410 -54
410 -3 1 -323 29 -711 64 -388 35 -706 62 -708 61 -1 -1 32 -116 73 -256 147
-492 360 -1270 1069 -3904 211 -786 405 -1504 430 -1595 25 -90 44 -165 42
-167 -2 -2 -21 38 -44 89 -171 384 -673 1496 -802 1773 -507 1097 -1021 2125
-1559 3120 -87 160 -91 172 -588 1435 -950 2415 -1558 4011 -1973 5175 -120
338 -210 586 -215 593 -1 1 -2 -42 -2 -95 -1 -54 -2 -132 -3 -173 -2 -88 17
-154 180 -615 392 -1111 903 -2457 1754 -4624 113 -288 206 -525 206 -528 0
-2 -133 218 -296 489 -940 1563 -1539 2454 -2553 3798 -1020 1353 -1159 1543
-1507 2060 -183 272 -334 510 -334 524 0 5 70 -15 229 -65z m6391 -7364 c63
-8 230 -23 370 -35 349 -27 350 -27 375 -44 12 -8 37 -17 56 -21 70 -13 91
-47 118 -185 39 -206 93 -748 176 -1765 72 -884 106 -1234 170 -1760 19 -154
50 -435 70 -625 100 -972 176 -1589 264 -2130 10 -63 18 -116 16 -118 -4 -4
-216 453 -352 758 -121 272 -60 61 -698 2430 -438 1626 -671 2486 -752 2770
-93 329 -163 617 -163 669 0 88 34 94 350 56z m4409 -201 c377 -35 744 -68
814 -71 111 -5 127 -8 122 -22 -3 -9 -89 -169 -190 -356 -793 -1468 -1237
-2375 -2117 -4330 -428 -949 -607 -1335 -608 -1309 -1 27 116 596 250 1219
159 738 216 1023 249 1260 17 121 126 902 241 1735 229 1650 223 1607 252
1730 32 134 58 176 117 186 20 3 45 9 56 14 41 18 51 19 89 14 21 -2 348 -34
725 -70z"/>
<path d="M22480 24159 c-96 -190 -278 -471 -724 -1123 -180 -263 -427 -627
-548 -810 -121 -182 -227 -334 -236 -337 -9 -3 -66 7 -127 22 -452 115 -1195
164 -2093 141 -538 -14 -843 -30 -1565 -82 l-548 -40 -354 -115 c-195 -63
-361 -112 -369 -109 -21 8 -28 37 -21 86 10 75 96 1212 93 1233 -6 39 -38
-267 -64 -596 -27 -364 -38 -434 -90 -578 l-34 -95 32 -55 c17 -31 51 -93 75
-138 24 -46 52 -87 63 -93 44 -24 128 -5 468 104 200 64 223 68 677 101 1095
79 1821 105 2413 86 496 -16 745 -38 1062 -93 301 -52 314 -53 348 -39 18 7
78 61 135 120 85 88 134 154 279 371 97 146 310 461 474 700 520 760 694 1040
694 1118 0 16 -7 50 -16 76 -17 48 -15 90 4 169 6 20 8 37 6 37 -2 0 -17 -27
-34 -61z"/>
<path d="M11193 23539 c4 -14 135 -451 292 -970 353 -1166 789 -2609 806
-2667 7 -23 14 -40 16 -38 5 5 -68 252 -474 1591 -156 517 -363 1201 -459
1520 -97 319 -178 582 -181 585 -3 3 -3 -7 0 -21z"/>
<path d="M12437 23211 c-6 -155 -2 -213 39 -486 33 -226 139 -835 239 -1370
159 -857 173 -933 210 -1160 19 -115 46 -247 60 -291 53 -171 52 -238 -2 -289
-15 -13 -25 -27 -22 -30 9 -8 129 -19 129 -11 0 17 -65 454 -96 646 -51 312
-110 647 -239 1340 -131 706 -174 955 -254 1450 l-57 355 -7 -154z"/>
<path d="M14694 22860 c7 -86 31 -493 46 -780 25 -497 41 -909 65 -1710 16
-539 26 -1435 35 -3155 17 -3259 49 -4430 165 -6042 14 -189 25 -356 25 -373
0 -16 4 -30 8 -30 4 0 18 123 30 273 75 909 156 1983 252 3332 275 3881 333
4658 430 5775 42 475 47 569 24 410 -50 -339 -158 -1730 -404 -5180 -246
-3452 -247 -3465 -296 -3637 -36 -131 -75 -10 -104 322 -11 136 -34 618 -50
1050 -33 940 -47 1905 -55 3715 -8 1979 -24 3091 -55 4060 -11 326 -36 927
-45 1085 -3 50 -12 214 -21 365 -16 288 -41 580 -50 590 -3 3 -3 -29 0 -70z"/>
<path d="M15792 20680 c0 -14 2 -19 5 -12 2 6 2 18 0 25 -3 6 -5 1 -5 -13z"/>
<path d="M16136 20470 c4 -14 13 -38 20 -55 11 -24 13 -25 8 -5 -4 14 -13 39
-20 55 -11 24 -13 25 -8 5z"/>
<path d="M16172 20370 c3 -8 42 -127 88 -263 45 -137 84 -247 86 -244 5 4
-163 508 -172 516 -4 3 -5 -1 -2 -9z"/>
<path d="M16356 19830 c4 -14 13 -38 20 -55 11 -24 13 -25 8 -5 -4 14 -13 39
-20 55 -11 24 -13 25 -8 5z"/>
<path d="M12322 19805 c0 -5 6 -26 13 -45 7 -19 14 -28 14 -20 0 8 -6 29 -14
45 -7 17 -13 26 -13 20z"/>
<path d="M16396 19720 c3 -14 11 -32 16 -40 6 -10 7 -7 2 10 -3 14 -11 32 -16
40 -6 10 -7 7 -2 -10z"/>
<path d="M16420 19655 c0 -5 5 -17 10 -25 5 -8 10 -10 10 -5 0 6 -5 17 -10 25
-5 8 -10 11 -10 5z"/>
<path d="M4595 6780 c9 -13 109 -131 140 -166 17 -19 56 -65 140 -164 200
-238 298 -350 303 -345 6 6 -24 42 -272 335 -214 252 -276 323 -276 314 0 -3
-10 5 -22 18 -13 13 -18 17 -13 8z"/>
<path d="M4441 6744 c0 -11 3 -14 6 -6 3 7 2 16 -1 19 -3 4 -6 -2 -5 -13z"/>
<path d="M25381 6713 c-11 -27 -121 -366 -186 -573 -63 -203 -366 -1146 -384
-1200 -11 -30 -51 -154 -89 -275 -82 -255 -201 -629 -277 -865 -89 -274 -238
-738 -335 -1040 -50 -157 -116 -359 -145 -450 -30 -91 -106 -327 -170 -525
-64 -198 -150 -461 -190 -585 -92 -282 -119 -370 -112 -376 7 -8 127 174 127
193 0 33 55 257 112 458 69 245 116 396 228 740 45 138 131 403 192 590 60
187 196 610 303 940 799 2476 818 2537 895 2809 47 166 58 226 31 159z"/>
<path d="M25162 6676 c-23 -29 -144 -195 -270 -367 -387 -532 -910 -1247
-1009 -1381 -52 -70 -109 -136 -127 -147 -59 -37 -103 -25 -134 35 -7 12 -75
255 -152 540 -174 641 -180 662 -195 674 -11 9 2 -48 49 -215 2 -5 6 -23 11
-40 4 -16 23 -86 42 -155 19 -69 50 -181 68 -250 18 -69 46 -174 63 -235 17
-60 49 -175 72 -255 22 -80 47 -174 57 -210 9 -36 18 -67 20 -69 2 -3 10 4 18
15 17 22 166 228 210 289 17 23 213 291 437 596 224 305 408 558 410 564 2 5
14 22 28 36 14 15 36 44 50 64 14 20 30 42 35 48 6 7 17 22 25 33 8 12 85 117
170 234 85 117 161 221 169 231 7 10 9 19 3 19 -5 0 -28 -24 -50 -54z"/>
<path d="M4446 6712 c-10 -16 172 -685 379 -1392 57 -195 219 -755 360 -1245
141 -490 346 -1198 455 -1575 204 -701 297 -1055 350 -1322 28 -139 34 -157
81 -234 27 -46 54 -86 60 -90 13 -8 13 -7 -108 411 -400 1379 -733 2537 -1119
3890 -245 858 -447 1561 -449 1563 -2 2 -6 -1 -9 -6z"/>
<path d="M5190 6080 c0 -5 5 -10 11 -10 5 0 7 5 4 10 -3 6 -8 10 -11 10 -2 0
-4 -4 -4 -10z"/>
<path d="M15535 6080 c8 -13 1264 -13 1285 0 10 6 -213 10 -638 10 -433 0
-651 -3 -647 -10z"/>
<path d="M18340 6080 c19 -12 847 -12 875 0 12 5 -172 9 -435 9 -297 1 -450
-3 -440 -9z"/>
<path d="M20735 6080 c28 -12 1046 -12 1065 0 10 6 -176 10 -535 9 -316 0
-541 -4 -530 -9z"/>
<path d="M5870 6050 c-41 -5 -22 -7 79 -8 74 -1 132 0 130 2 -9 8 -158 12
-209 6z"/>
<path d="M7055 6050 c-37 -5 -18 -7 79 -8 71 -1 127 0 125 2 -9 8 -157 13
-204 6z"/>
<path d="M9375 6050 c-27 -4 182 -7 465 -7 283 0 488 3 455 7 -75 10 -852 9
-920 0z"/>
<path d="M11505 6050 c-27 -4 222 -7 555 -7 333 0 580 3 550 7 -68 10 -1036 9
-1105 0z"/>
<path d="M13660 6050 c-30 -4 175 -7 455 -7 281 0 483 3 450 7 -74 10 -829 9
-905 0z"/>
<path d="M8003 6043 c31 -2 83 -2 115 0 31 2 5 3 -58 3 -63 0 -89 -1 -57 -3z"/>
<path d="M19415 5950 c13 -65 58 -250 70 -290 8 -25 21 -78 31 -118 9 -40 19
-70 22 -68 13 14 -78 393 -113 467 -11 26 -14 28 -10 9z"/>
<path d="M23061 5900 c-12 -41 -44 -147 -71 -235 -28 -88 -77 -281 -110 -430
-34 -148 -194 -799 -356 -1445 -219 -871 -307 -1203 -339 -1285 -60 -155 -61
-162 -27 -215 15 -25 41 -64 56 -88 15 -23 38 -47 52 -52 39 -15 199 -12 239
4 19 8 77 51 129 95 104 90 108 98 121 246 19 211 191 778 242 793 18 5 47
-33 66 -85 11 -29 26 -52 39 -58 13 -6 39 -32 60 -59 62 -83 67 -83 185 3 38
28 75 51 81 51 7 0 48 37 91 81 45 47 84 79 92 77 22 -8 15 -119 -14 -238 -15
-58 -44 -168 -66 -246 -52 -186 -69 -308 -87 -614 -8 -140 -21 -325 -29 -410
-9 -85 -22 -225 -30 -310 -17 -169 -15 -160 -41 -341 -17 -119 -17 -129 0
-213 26 -132 48 -169 60 -103 7 40 21 236 41 552 8 132 17 274 20 315 6 83 26
399 50 785 17 264 17 265 70 445 19 63 84 291 145 505 61 215 120 419 131 454
25 82 24 91 -4 50 -13 -19 -109 -155 -213 -304 -105 -148 -224 -317 -264 -375
-91 -131 -105 -143 -137 -122 -8 5 -36 159 -73 392 -33 212 -63 399 -67 415
-5 25 -10 14 -33 -75 -71 -275 -155 -597 -185 -715 -18 -71 -57 -218 -85 -325
-28 -107 -67 -253 -85 -323 -19 -71 -39 -135 -46 -143 -9 -11 -54 -14 -239
-14 -211 0 -228 1 -232 18 -5 17 171 728 537 2177 306 1210 355 1410 352 1425
-2 8 -13 -19 -26 -60z"/>
<path d="M18092 5933 c-28 -40 -170 -317 -198 -387 -30 -74 -30 -96 0 -36 12
25 62 124 112 220 100 196 116 230 110 230 -3 0 -13 -12 -24 -27z"/>
<path d="M21993 5933 c3 -16 22 -125 43 -243 25 -138 40 -202 42 -178 3 37
-46 333 -68 411 -13 43 -25 50 -17 10z"/>
<path d="M14736 5930 c3 -14 39 -132 81 -263 l75 -238 -6 -467 c-4 -257 -9
-572 -12 -700 l-5 -233 -61 -167 -61 -167 17 -105 c10 -58 34 -211 55 -340
l37 -235 -7 -455 c-4 -250 -13 -709 -19 -1019 -6 -310 -8 -566 -6 -569 12 -12
80 211 72 236 -22 70 -30 353 -30 1082 l-1 795 -28 165 c-38 220 -38 316 -3
444 49 174 56 247 66 676 15 645 14 1002 -4 1085 -20 97 -111 384 -141 447
-14 29 -22 42 -19 28z"/>
<path d="M5271 5930 c0 -8 73 -305 162 -660 l163 -645 230 -3 231 -2 -24 107
c-14 60 -49 209 -78 333 -29 124 -86 363 -126 532 -40 169 -76 305 -79 303 -4
-2 -3 -28 2 -57 4 -29 15 -100 23 -157 8 -57 31 -158 51 -225 57 -194 164
-646 164 -697 0 -90 -62 -126 -197 -116 -93 7 -147 36 -185 98 -32 51 -124
405 -184 709 -19 99 -55 234 -81 310 -46 137 -72 197 -72 170z"/>
<path d="M15332 5935 c-17 -89 -33 -321 -36 -524 -3 -210 -7 -275 -25 -361
-36 -178 -30 -207 64 -312 19 -20 50 -71 70 -113 46 -95 45 -101 -40 -289 -56
-124 -88 -211 -73 -196 3 3 55 115 116 249 61 134 119 252 128 262 16 18 45
19 648 20 347 1 620 5 606 9 -14 4 -148 8 -298 9 -352 1 -374 9 -322 110 11
22 54 70 97 108 113 100 177 165 284 288 53 61 145 164 204 230 140 157 184
222 174 255 -14 50 -8 93 22 161 60 138 99 179 -685 -719 -125 -144 -235 -263
-245 -263 -9 -1 -167 -1 -351 0 -252 2 -338 5 -348 14 -10 10 -9 104 3 477 13
386 16 633 7 585z"/>
<path d="M8301 5904 c0 -11 3 -14 6 -6 3 7 2 16 -1 19 -3 4 -6 -2 -5 -13z"/>
<path d="M10493 5913 c6 -13 29 -67 122 -285 85 -200 116 -258 79 -146 -14 44
-130 317 -174 411 -7 15 -17 27 -22 27 -5 0 -7 -3 -5 -7z"/>
<path d="M11357 5885 c-14 -81 -7 -299 12 -420 26 -157 33 -247 34 -435 l2
-155 54 -80 c50 -75 53 -83 48 -127 l-6 -48 649 0 649 0 -6 54 c-5 48 -2 60
32 120 32 57 37 74 36 129 -1 34 -6 80 -12 102 -6 22 -13 162 -15 310 -4 196
-11 311 -25 420 -12 83 -23 152 -25 154 -8 8 -4 -129 17 -588 15 -333 18 -471
10 -488 l-11 -23 -653 0 c-524 0 -657 3 -671 13 -19 14 -26 71 -61 517 -23
304 -46 564 -49 575 -1 5 -6 -8 -9 -30z"/>
<path d="M20540 5907 c0 -6 5 -28 10 -47 17 -58 14 -113 -9 -159 l-22 -43 30
-64 c16 -35 68 -123 114 -196 46 -73 124 -196 172 -273 48 -77 93 -143 100
-147 24 -14 122 -143 133 -176 7 -20 8 -42 3 -55 -20 -51 -23 -52 -357 -57
-172 -3 -316 -8 -320 -12 -4 -5 216 -8 489 -8 l495 0 12 53 c6 28 13 70 17 92
l5 40 -67 -3 c-129 -7 -115 -19 -264 226 -73 119 -150 244 -171 277 -20 33
-102 164 -180 290 -79 127 -151 240 -159 252 -18 25 -31 29 -31 10z"/>
<path d="M7401 5901 c-1 -18 59 -333 199 -1046 22 -110 44 -229 50 -265 6 -36
13 -73 16 -82 5 -15 27 -18 220 -20 179 -3 214 -1 214 11 0 15 -24 152 -70
401 -16 85 -54 301 -84 480 -68 397 -94 529 -95 478 -2 -93 23 -304 49 -413
42 -179 143 -742 144 -807 1 -43 -4 -63 -20 -85 -43 -57 -172 -67 -266 -20
-71 36 -89 85 -153 420 -30 159 -61 339 -70 400 -26 190 -34 227 -71 362 -37
135 -63 210 -63 186z"/>
<path d="M6929 5882 c-11 -33 32 -317 70 -462 22 -85 79 -344 126 -575 190
-936 204 -995 328 -1330 47 -129 65 -155 186 -260 111 -97 165 -125 244 -125
61 0 110 -19 121 -45 19 -52 23 -45 -295 -665 -17 -34 -37 -100 -27 -90 15 14
245 479 240 484 -3 3 -1 6 5 6 6 0 17 15 24 33 7 17 35 71 61 119 26 48 75
141 108 207 33 65 67 122 76 125 9 3 45 6 80 6 57 0 64 2 64 20 0 20 -7 20
-334 20 -333 0 -335 0 -360 23 -14 12 -77 119 -142 237 -64 118 -125 230 -136
248 -22 36 -34 84 -83 327 -19 94 -62 303 -95 465 -33 162 -96 473 -140 690
-98 480 -115 559 -121 542z"/>
<path d="M9238 5878 c-9 -27 10 -316 26 -374 31 -120 57 -301 65 -457 l8 -159
59 -85 c53 -77 59 -91 58 -134 l0 -49 443 0 c418 0 444 1 439 18 -2 9 -8 52
-12 95 l-6 77 -444 0 c-415 0 -445 1 -462 18 -13 13 -23 53 -36 148 -72 524
-127 907 -131 912 -1 2 -5 -3 -7 -10z"/>
<path d="M13540 5882 c0 -6 10 -39 21 -73 21 -60 21 -84 4 -179 -7 -34 4 -52
191 -330 145 -217 219 -318 281 -382 135 -142 169 -212 122 -254 -19 -17 -43
-19 -274 -24 -139 -3 -257 -8 -261 -12 -4 -5 176 -8 399 -8 l407 0 0 95 0 95
-72 0 c-40 0 -78 4 -84 8 -7 4 -76 104 -154 222 -530 800 -580 872 -580 842z"/>
<path d="M8310 5871 c0 -20 46 -272 106 -576 74 -378 292 -1590 343 -1905 23
-140 53 -320 66 -400 98 -576 117 -711 104 -727 -10 -11 -115 -13 -630 -11
-410 2 -618 0 -616 -7 2 -5 28 -27 58 -48 30 -21 77 -60 106 -87 l52 -50 471
0 c304 0 478 4 491 10 25 14 139 168 139 189 0 9 -16 68 -36 131 -19 63 -49
198 -65 300 -123 745 -220 1313 -285 1660 -185 996 -175 937 -195 1113 -12
112 -109 473 -109 408z"/>
<path d="M6230 5869 c0 -13 63 -306 104 -484 39 -168 77 -338 171 -755 15 -63
44 -194 65 -290 21 -96 53 -236 70 -310 16 -74 51 -227 76 -340 26 -113 60
-263 76 -335 16 -71 47 -209 68 -305 21 -96 63 -285 93 -420 82 -367 81 -361
65 -371 -7 -5 -93 -9 -190 -9 -156 0 -180 2 -196 18 -16 16 -37 94 -162 617
-23 94 -59 247 -80 342 -21 94 -44 190 -50 212 l-11 41 -225 0 c-210 0 -225
-1 -220 -17 3 -10 17 -65 31 -123 15 -58 46 -179 70 -270 75 -288 105 -423
110 -495 32 -442 68 -945 85 -1180 11 -159 22 -317 25 -350 13 -153 17 -191
22 -209 5 -18 6 -18 19 5 7 13 20 66 30 117 16 90 16 98 -5 245 -44 314 -85
705 -102 972 -17 273 -37 405 -105 678 -65 262 -72 304 -54 337 19 36 129 56
222 40 77 -14 121 -38 142 -79 15 -29 119 -446 149 -601 8 -41 18 -113 22
-160 3 -47 10 -99 16 -115 9 -30 160 -173 212 -202 35 -20 170 -17 196 4 36
31 121 157 121 180 0 12 -20 75 -44 140 -43 115 -134 504 -372 1593 -36 162
-89 401 -119 530 -100 433 -183 824 -199 931 -14 98 -98 391 -118 414 -4 5 -8
7 -8 4z"/>
<path d="M15527 5568 c-4 -66 -7 -172 -7 -235 l0 -113 250 0 249 0 193 221
c106 122 197 227 201 235 7 12 -60 14 -436 14 l-444 0 -6 -122z m532 -152 c30
-28 26 -61 -15 -105 -52 -58 -104 -74 -243 -75 -126 -1 -181 11 -206 47 -22
32 -19 80 8 104 54 50 71 53 258 50 158 -2 179 -4 198 -21z"/>
<path d="M18144 5487 c-98 -196 -102 -205 -108 -287 -6 -80 -26 -267 -60 -580
-9 -74 -25 -223 -36 -330 -12 -107 -27 -251 -35 -320 -8 -69 -17 -152 -20
-185 -6 -60 -22 -201 -49 -435 -8 -69 -20 -182 -27 -252 l-12 -126 53 -161 53
-161 443 0 442 0 29 53 c16 28 56 97 88 152 32 55 62 107 67 115 7 13 53 318
138 925 19 131 45 311 100 685 17 113 42 282 55 375 14 94 31 211 39 260 l14
90 -49 188 c-27 103 -49 190 -49 192 0 3 -219 5 -487 5 l-488 0 -101 -203z
m982 -78 c66 -33 85 -63 91 -141 6 -66 -9 -138 -28 -138 -6 0 -20 5 -31 11
-20 11 -21 9 -15 -20 4 -17 0 -66 -7 -109 -8 -42 -26 -160 -40 -262 -14 -102
-35 -252 -47 -335 -11 -82 -29 -211 -39 -285 -76 -541 -107 -763 -125 -879
-17 -108 -42 -173 -74 -191 -26 -13 -795 -14 -821 0 -45 24 -48 90 -15 370 37
313 71 607 91 790 7 74 18 169 24 210 19 147 49 417 60 538 6 68 15 135 20
148 5 13 6 24 2 25 -4 1 -16 2 -27 3 -27 1 -31 41 -11 109 35 119 96 166 235
178 47 4 226 6 398 5 306 -3 313 -4 359 -27z m-1163 -2473 c63 -95 47 -91 397
-91 168 0 318 4 334 8 15 4 63 41 106 82 91 87 120 96 120 37 0 -49 -56 -164
-109 -224 -72 -81 -84 -83 -471 -83 -369 0 -369 0 -423 64 -36 43 -68 136 -70
202 -4 107 47 110 116 5z"/>
<path d="M18513 5223 c86 -2 228 -2 315 0 86 1 15 3 -158 3 -173 0 -244 -2
-157 -3z"/>
<path d="M18330 4851 c0 -11 -69 -618 -100 -881 -11 -96 -27 -233 -36 -305 -8
-71 -19 -157 -24 -190 -17 -106 -48 -96 267 -93 l277 3 17 115 c10 63 29 203
44 310 47 358 76 563 110 802 19 131 35 240 35 243 0 3 -133 5 -295 5 -177 0
-295 -4 -295 -9z m337 -247 c12 -7 40 -16 63 -20 22 -4 52 -15 65 -26 27 -21
46 -77 40 -117 -3 -14 -19 -132 -35 -261 -85 -654 -91 -689 -137 -732 -43 -41
-74 -48 -219 -48 -247 0 -258 19 -215 362 11 84 34 272 51 418 31 269 45 334
80 365 10 9 47 25 82 35 35 10 81 25 103 34 43 16 86 13 122 -10z"/>
<path d="M21040 5685 c0 -3 48 -83 106 -178 59 -94 122 -198 142 -229 l34 -58
97 1 c97 1 96 9 -4 24 -52 9 -115 70 -115 112 0 48 39 76 113 81 91 6 233 -14
271 -38 58 -35 79 -120 52 -213 -17 -57 -37 -72 -63 -46 -7 7 -12 -7 -15 -48
-3 -32 -17 -107 -32 -168 -14 -60 -44 -198 -67 -305 -42 -197 -69 -268 -109
-290 -12 -6 -217 -10 -534 -10 l-515 0 -10 -52 c-6 -29 -27 -145 -46 -258 -19
-113 -46 -266 -59 -340 -58 -324 -87 -484 -111 -615 -24 -137 -61 -337 -71
-382 -4 -22 -2 -23 61 -23 59 0 65 2 69 23 3 12 17 87 32 167 14 80 36 201 49
270 106 582 125 685 125 696 0 7 -12 11 -32 10 -30 -1 -33 2 -39 39 -17 94 16
163 96 204 l50 26 390 1 c451 1 428 -4 519 100 81 91 137 116 136 61 -1 -39
-26 -93 -94 -206 -36 -61 -66 -116 -66 -123 0 -12 20 17 125 182 26 41 58 91
70 110 12 19 25 49 28 65 4 17 27 125 52 240 25 116 57 262 70 325 13 63 42
193 64 289 l39 175 -36 193 -36 193 -368 0 c-202 0 -368 -2 -368 -5z"/>
<path d="M5054 5643 c12 -41 109 -403 140 -525 19 -73 84 -324 144 -558 365
-1408 407 -1571 527 -2040 49 -190 91 -348 95 -353 3 -4 3 25 -1 65 -11 108
-18 192 -25 298 -4 52 -21 156 -39 230 -50 205 -223 886 -246 963 -11 37 -17
72 -14 77 3 5 -9 16 -28 23 -26 11 -39 27 -61 76 -32 72 -52 167 -42 204 9 39
43 35 114 -14 57 -39 66 -42 164 -51 57 -6 180 -8 273 -6 175 5 212 13 245 53
22 26 58 37 82 24 34 -18 71 -115 76 -200 4 -68 2 -78 -16 -91 -19 -13 -20
-17 -7 -58 7 -25 30 -121 50 -215 20 -93 62 -280 94 -415 32 -135 75 -316 96
-402 l37 -158 44 0 c25 0 44 5 44 11 0 6 -9 47 -21 92 -21 84 -70 297 -140
612 -22 99 -51 223 -64 275 -13 52 -35 147 -49 210 -26 119 -101 449 -181 795
-61 261 -137 596 -185 815 -21 96 -44 199 -51 228 l-12 52 -54 0 c-50 0 -53
-1 -48 -22 2 -13 34 -147 70 -298 37 -151 80 -336 96 -410 16 -74 43 -187 58
-250 47 -188 83 -366 79 -386 -3 -18 -19 -19 -379 -22 -299 -2 -379 0 -393 11
-11 8 -28 50 -43 103 -41 153 -170 657 -238 934 -36 146 -70 282 -76 302 l-10
38 -55 0 c-48 0 -55 -2 -50 -17z"/>
<path d="M7164 5634 c11 -44 125 -599 156 -759 16 -82 42 -215 59 -295 16 -80
46 -230 67 -335 40 -206 41 -210 206 -502 l29 -53 332 1 c183 1 319 5 302 9
-16 4 -138 8 -271 9 -277 1 -312 8 -375 74 -41 42 -95 141 -105 195 -6 28 -4
32 16 32 12 0 41 -16 64 -35 77 -63 97 -67 352 -73 252 -5 276 -2 340 49 67
53 109 32 138 -70 28 -101 17 -201 -23 -201 -4 0 5 -66 20 -147 61 -327 89
-525 78 -539 -9 -11 -43 -14 -135 -14 -117 0 -124 -1 -137 -22 -24 -39 -197
-380 -197 -389 0 -6 638 -1 647 5 2 1 -72 438 -147 871 -23 132 -53 308 -66
390 -14 83 -45 256 -69 385 -24 129 -53 289 -65 355 -11 66 -43 242 -70 390
-28 149 -65 358 -83 465 l-32 195 -63 3 c-61 3 -62 2 -57 -20 28 -122 236
-1179 265 -1348 6 -36 13 -72 16 -81 3 -9 -3 -24 -11 -33 -14 -14 -58 -16
-360 -16 -196 0 -355 4 -369 10 -15 5 -35 28 -49 57 -28 56 -28 58 -268 1301
l-32 162 -54 0 c-55 0 -55 0 -49 -26z m1475 -2810 c31 -39 46 -123 31 -169
-10 -30 -21 -41 -57 -57 -38 -17 -62 -19 -173 -16 -117 3 -132 5 -151 25 -27
26 -28 77 -2 105 24 28 74 48 118 48 46 0 99 22 141 60 42 37 66 38 93 4z"/>
<path d="M9461 5633 c0 -16 15 -125 33 -243 l32 -215 379 0 380 -1 -290 5
-290 6 275 5 275 5 -285 3 c-157 1 -302 7 -322 12 -79 22 -116 116 -62 159 52
41 82 44 406 39 l308 -5 57 -29 c43 -21 64 -40 80 -69 27 -47 30 -111 7 -136
-15 -17 -15 -22 5 -68 11 -27 21 -65 21 -83 0 -18 9 -112 20 -208 43 -381 48
-432 38 -473 -5 -23 -14 -47 -20 -54 -8 -10 -101 -13 -434 -13 -397 0 -424 -1
-424 -17 0 -10 20 -160 45 -333 24 -173 61 -434 80 -580 20 -146 44 -326 55
-400 10 -74 22 -160 25 -190 l7 -55 44 4 c55 4 54 -11 14 278 -17 120 -46 331
-65 468 -19 138 -37 278 -41 312 -5 53 -10 62 -29 67 -44 11 -65 117 -31 155
38 42 87 49 371 55 149 3 286 10 305 16 20 5 55 30 80 55 24 25 50 45 57 45
56 0 29 -203 -35 -262 -46 -43 -80 -48 -333 -48 -148 0 -240 -4 -244 -10 -4
-7 100 -10 304 -10 286 0 310 1 315 18 2 9 17 69 31 132 15 63 31 130 37 149
15 47 12 102 -16 356 -14 121 -34 312 -46 425 -11 113 -24 242 -29 288 -8 72
-20 109 -92 277 l-84 195 -457 0 -458 0 1 -27z"/>
<path d="M11575 5543 c4 -65 12 -174 19 -243 l11 -125 510 0 510 0 -2 160 c-2
88 -6 197 -9 243 l-6 82 -520 0 -521 0 8 -117z m899 -144 c107 -30 132 -147
41 -185 -28 -11 -107 -14 -397 -14 -335 0 -366 2 -405 19 -23 11 -46 28 -52
39 -17 32 -13 87 7 105 48 44 71 46 427 47 216 0 354 -4 379 -11z m-186 -216
c-93 -2 -243 -2 -335 0 -93 1 -17 3 167 3 184 0 260 -2 168 -3z"/>
<path d="M14000 5653 c0 -5 71 -113 158 -242 l157 -233 73 -2 c41 -1 65 1 55
5 -10 4 -13 8 -8 9 6 0 -14 9 -44 19 -62 22 -107 63 -120 109 -8 27 -6 37 14
60 23 26 27 27 114 26 118 -2 175 -28 209 -94 29 -59 29 -105 -1 -132 -23 -21
-23 -23 -9 -71 19 -66 12 -721 -8 -777 -23 -64 5 -60 -461 -60 l-429 0 0 -27
c0 -16 7 -307 15 -648 8 -341 15 -711 15 -822 l0 -203 47 0 46 0 -9 573 c-4
314 -8 596 -7 625 1 38 -3 52 -12 52 -40 0 -60 104 -29 148 37 54 55 57 389
62 344 6 333 3 402 76 43 46 73 46 73 0 0 -61 -98 -378 -122 -392 -5 -3 -22 3
-38 14 -15 12 -30 19 -32 16 -6 -5 35 -278 68 -459 14 -77 58 -336 98 -575
l72 -435 7 369 c7 414 12 363 -84 908 l-40 228 71 204 71 204 5 548 5 549 -59
185 -58 185 -297 3 c-163 1 -297 -1 -297 -5z"/>
<path d="M24523 5433 c-61 -81 -226 -305 -367 -498 -411 -562 -588 -796 -604
-802 -26 -10 -46 12 -60 68 -12 48 -211 868 -294 1212 -17 71 -34 125 -38 120
-4 -4 -31 -105 -60 -223 -106 -439 -491 -2001 -540 -2190 -16 -63 -49 -195
-73 -293 l-44 -178 65 3 65 3 28 110 c15 61 64 252 108 425 45 173 137 536
206 805 68 270 136 534 150 588 15 55 25 101 22 103 -2 3 -16 0 -31 -6 -24 -9
-28 -7 -36 16 -22 56 21 233 61 255 16 8 26 7 44 -5 51 -34 49 -24 164 -771 5
-33 21 -136 36 -230 14 -93 28 -181 30 -195 2 -14 9 -58 15 -99 6 -41 12 -76
13 -77 2 -2 21 25 44 59 23 34 61 89 84 122 85 120 184 261 224 320 23 33 84
121 136 195 265 378 293 421 297 452 6 54 52 126 136 215 106 113 142 109 111
-10 -19 -75 -39 -113 -84 -162 -30 -33 -43 -61 -70 -155 -17 -63 -45 -158 -61
-210 -33 -109 -65 -218 -195 -670 -51 -179 -123 -428 -160 -555 -37 -126 -80
-277 -97 -335 -20 -69 -33 -145 -39 -220 -5 -63 -11 -153 -15 -200 -3 -47 -9
-118 -13 -157 -4 -40 -4 -70 -1 -65 4 4 39 124 79 267 71 251 126 445 246 870
31 110 76 270 100 355 23 85 61 218 83 295 22 77 84 295 137 485 53 190 117
415 142 500 95 328 172 604 169 607 -2 2 -53 -63 -113 -144z m-813 -1325 c0
-18 -65 -132 -125 -218 -148 -211 -225 -180 -240 96 -3 56 -1 86 8 98 12 16
18 14 67 -28 35 -30 63 -46 79 -45 14 0 64 25 111 54 91 58 100 61 100 43z"/>
<path d="M22066 5417 c-4 -24 -18 -93 -32 -153 -14 -60 -40 -179 -59 -264 -18
-85 -54 -249 -80 -365 -25 -115 -60 -273 -77 -350 -16 -77 -35 -156 -42 -175
-7 -20 -59 -107 -116 -195 l-104 -160 -1 -340 -2 -340 -56 -290 c-84 -437 -85
-438 -108 -458 -19 -15 -49 -17 -298 -17 -220 0 -281 3 -296 14 -18 13 -17 24
44 387 34 206 80 466 102 579 21 113 41 217 44 233 l5 27 -204 0 -204 0 -21
-117 c-12 -65 -33 -179 -47 -253 -14 -74 -36 -193 -49 -265 -56 -301 -104
-534 -114 -554 -11 -20 -19 -21 -235 -21 -172 0 -226 3 -234 13 -13 15 -10 31
138 882 65 374 80 465 109 625 16 91 43 244 60 340 17 96 35 199 41 229 11 60
13 97 4 88 -15 -15 -76 -288 -94 -422 -18 -140 -227 -1355 -250 -1462 -6 -26
-26 -96 -45 -155 -19 -59 -35 -115 -35 -125 0 -27 112 -183 142 -199 38 -20
213 -19 251 1 33 17 194 161 207 184 4 9 11 72 14 141 8 144 11 167 72 475 28
140 54 245 67 267 27 49 75 68 172 68 121 0 155 -22 155 -101 0 -98 -97 -611
-141 -744 l-41 -125 59 -86 c32 -48 68 -93 80 -101 17 -11 59 -14 211 -11
l189 3 59 50 c32 28 80 70 107 95 l49 45 8 135 c5 80 26 226 50 360 39 209 42
243 50 480 5 162 14 275 23 310 8 30 46 118 86 195 82 160 116 262 165 495 20
91 65 296 101 455 101 442 125 560 132 641 6 80 -1 101 -11 31z"/>
<path d="M19521 5358 c-17 -114 -66 -438 -97 -643 -14 -93 -36 -242 -49 -330
-13 -88 -33 -223 -44 -300 -12 -77 -28 -180 -36 -230 -8 -49 -22 -139 -30
-200 -9 -60 -27 -182 -41 -270 -13 -88 -33 -223 -44 -300 -29 -206 -39 -244
-75 -305 -18 -30 -79 -134 -135 -230 -57 -96 -110 -183 -118 -193 -14 -16 -50
-17 -551 -15 l-536 3 -82 240 -83 240 6 90 c3 50 11 146 19 215 8 69 24 217
35 330 12 113 27 266 35 340 8 74 24 225 35 335 12 110 27 261 35 335 8 74 17
158 20 185 2 28 11 113 19 190 38 346 46 425 51 500 4 57 3 74 -4 58 -12 -28
-36 -195 -56 -398 -8 -82 -24 -240 -35 -350 -11 -110 -27 -263 -35 -340 -8
-77 -44 -426 -81 -775 -56 -530 -67 -662 -66 -800 1 -221 21 -331 73 -408 59
-89 143 -170 189 -182 27 -7 185 -10 469 -8 l429 3 58 40 c32 22 90 72 130
110 59 57 79 86 113 159 81 175 117 310 160 601 26 175 165 1093 237 1565 13
91 41 266 60 390 32 201 54 430 43 430 -3 0 -11 -37 -18 -82z"/>
<path d="M10715 5320 c3 -47 15 -170 26 -275 10 -104 28 -275 39 -380 11 -104
28 -262 37 -350 29 -265 27 -295 -41 -569 -33 -131 -66 -245 -74 -252 -11 -11
-76 -14 -348 -14 -212 0 -334 -4 -334 -10 0 -5 25 -180 55 -387 30 -208 66
-468 80 -578 14 -110 28 -208 31 -217 3 -10 1 -25 -4 -34 -9 -15 -31 -17 -203
-15 -141 2 -198 6 -207 15 -7 7 -26 98 -42 207 -30 204 -78 539 -85 599 -3 19
-16 112 -29 205 -14 94 -39 271 -56 395 -17 124 -40 286 -50 360 -11 74 -29
205 -41 290 -11 85 -25 159 -30 164 -19 21 3 -270 32 -413 16 -79 72 -447 124
-819 84 -592 96 -695 98 -834 l2 -159 101 -99 101 -100 101 0 101 0 71 83 c39
45 73 92 76 104 3 12 -6 64 -21 115 -44 151 -52 191 -89 459 -45 317 -46 360
-10 388 14 11 42 24 63 27 20 4 52 15 71 25 29 16 58 19 180 19 80 0 163 5
185 11 44 12 120 85 179 173 31 46 36 61 46 161 17 171 15 469 -4 650 -9 88
-25 243 -36 345 -11 102 -26 262 -35 355 -22 227 -43 388 -55 417 -8 17 -9 0
-5 -62z"/>
<path d="M24222 4694 c-7 -8 -10 -19 -6 -26 5 -7 10 -3 16 12 10 28 7 33 -10
14z"/>
<path d="M13572 4550 c0 -14 2 -19 5 -12 2 6 2 18 0 25 -3 6 -5 1 -5 -13z"/>
<path d="M16917 4468 c-3 -51 -11 -147 -17 -213 -13 -158 -27 -326 -41 -510
-7 -92 -17 -159 -25 -172 l-14 -23 -524 0 -523 0 -6 -127 c-4 -71 -12 -252
-18 -403 l-11 -275 -150 -560 c-82 -308 -185 -693 -229 -855 -43 -162 -85
-324 -93 -359 l-15 -64 30 29 c48 46 125 207 144 304 26 134 133 619 150 685
9 33 45 166 80 295 85 311 103 419 115 714 6 133 15 255 21 273 14 43 59 80
109 88 22 4 55 14 73 23 27 15 82 18 377 22 239 3 351 9 365 17 11 6 56 48 99
92 93 93 96 103 83 271 -8 108 3 280 28 446 12 78 12 380 1 391 -2 2 -6 -38
-9 -89z"/>
<path d="M12845 4340 c3 -96 10 -265 15 -375 22 -466 21 -452 4 -469 -14 -14
-84 -16 -640 -16 -583 0 -625 1 -642 18 -14 14 -21 56 -35 237 -10 121 -27
320 -38 441 -10 122 -19 240 -19 262 0 23 -5 44 -11 48 -17 10 -5 -360 15
-476 10 -59 18 -165 19 -280 l3 -185 49 -73 c40 -61 48 -80 47 -117 l0 -45
621 2 622 3 6 45 c3 25 18 68 33 95 26 47 28 55 22 135 -3 47 -11 112 -16 145
-6 33 -10 155 -10 270 -1 156 -6 246 -21 350 -11 77 -22 145 -24 150 -3 6 -3
-69 0 -165z"/>
<path d="M13501 4340 c-11 -133 -11 -186 -2 -270 16 -138 50 -1503 40 -1600
-5 -41 -11 -106 -15 -145 l-6 -70 75 -84 c41 -46 86 -90 99 -97 13 -8 57 -13
103 -14 l80 0 87 90 c99 102 97 95 72 230 -11 60 -17 181 -21 410 -6 361 -2
389 54 411 40 16 163 6 195 -15 38 -25 52 -71 102 -341 131 -702 193 -1097
245 -1570 10 -89 62 -245 105 -310 41 -63 39 -44 -96 715 -108 613 -204 1163
-269 1553 l-42 247 -164 0 -163 0 7 -600 c5 -481 4 -602 -7 -615 -10 -12 -42
-15 -189 -15 -127 0 -182 4 -193 13 -25 19 -24 4 -64 1772 -4 165 -9 338 -13
385 l-6 85 -14 -165z"/>
<path d="M15606 4268 c-13 -29 -48 -107 -79 -174 -67 -146 -60 -85 -87 -879
-11 -324 -25 -673 -30 -775 -6 -102 -9 -203 -9 -225 l1 -40 13 45 c8 25 41
149 74 275 l60 230 11 250 c14 333 29 672 34 767 4 74 3 77 -17 75 -20 -2 -22
3 -25 55 -3 66 25 138 67 167 60 42 82 44 489 49 216 2 408 1 427 -2 109 -21
128 -128 30 -172 -11 -5 -193 -11 -405 -14 l-385 -6 452 -2 452 -2 5 53 c12
119 26 298 26 336 l0 41 -540 0 -540 0 -24 -52z"/>
<path d="M11677 4263 c-3 -8 14 -250 28 -375 l7 -68 491 0 490 0 -7 217 c-4
119 -9 220 -12 225 -6 10 -991 11 -997 1z m896 -248 c62 -29 79 -67 56 -119
-25 -53 -60 -57 -444 -54 -324 3 -352 4 -382 22 -32 20 -53 53 -53 85 0 26 42
64 84 76 20 6 172 10 368 9 298 -1 338 -3 371 -19z"/>
<path d="M15267 4048 c-14 -101 -19 -221 -47 -1138 -37 -1195 -53 -1479 -96
-1689 -15 -73 -15 -75 10 -155 14 -45 30 -87 35 -95 11 -17 18 91 26 374 9
309 73 2368 81 2568 6 171 2 223 -9 135z"/>
<path d="M20728 3893 c57 -2 147 -2 200 0 53 1 7 3 -103 3 -110 0 -154 -2 -97
-3z"/>
<path d="M5770 3830 c-10 -6 75 -10 250 -10 175 0 260 4 250 10 -9 6 -115 10
-250 10 -135 0 -241 -4 -250 -10z"/>
<path d="M13950 3830 c-10 -6 43 -10 158 -10 113 0 171 3 167 10 -8 13 -305
13 -325 0z"/>
<path d="M21121 3814 c0 -11 3 -14 6 -6 3 7 2 16 -1 19 -3 4 -6 -2 -5 -13z"/>
<path d="M21355 3818 c-2 -7 -13 -46 -24 -86 -21 -79 -46 -129 -73 -146 -36
-22 -78 51 -78 137 0 67 -17 39 -33 -55 -8 -51 -48 -282 -87 -513 -40 -231
-74 -437 -77 -457 l-6 -38 157 0 c86 0 159 0 164 0 4 -1 22 97 39 217 32 216
33 221 32 586 -1 202 -3 367 -5 367 -3 0 -6 -6 -9 -12z m-81 -374 c17 -45 26
-169 27 -372 1 -255 -5 -295 -55 -350 -29 -32 -40 -36 -93 -40 -53 -4 -62 -1
-90 22 -51 43 -51 81 -5 307 46 225 64 276 131 381 49 77 71 89 85 52z"/>
<path d="M8206 3244 c-10 -25 -7 -28 12 -11 9 8 37 17 62 20 43 3 42 4 -11 5
-44 2 -58 -2 -63 -14z"/>
<path d="M11638 3253 c7 -3 16 -2 19 1 4 3 -2 6 -13 5 -11 0 -14 -3 -6 -6z"/>
<path d="M12751 3256 c8 -8 78 -10 85 -3 4 4 -14 7 -41 7 -27 0 -46 -2 -44 -4z"/>
<path d="M12696 2957 c-87 -133 -226 -345 -310 -472 l-151 -230 -263 -3 c-165
-1 -270 1 -282 8 -22 12 -23 21 -45 270 -34 397 -57 655 -59 658 -2 1 -6 -56
-9 -126 -5 -105 -2 -151 15 -253 16 -97 21 -171 22 -339 l1 -216 75 -83 c41
-45 87 -89 102 -97 21 -11 69 -14 203 -14 157 0 180 2 216 20 56 29 176 146
233 227 82 118 376 564 390 591 11 23 11 37 -2 88 -14 60 -14 64 11 138 14 42
23 76 19 76 -4 0 -78 -110 -166 -243z"/>
<path d="M11775 2933 c3 -27 9 -102 15 -168 6 -66 13 -137 16 -157 l6 -38 181
0 182 0 121 183 c67 100 127 192 133 205 l12 22 -335 0 -335 0 4 -47z m380
-177 c66 -28 67 -92 3 -137 -70 -50 -238 -47 -287 5 -46 49 -11 117 70 136 57
13 177 11 214 -4z"/>
<path d="M14772 1020 c0 -14 2 -19 5 -12 2 6 2 18 0 25 -3 6 -5 1 -5 -13z"/>
<path d="M6171 884 c0 -11 3 -14 6 -6 3 7 2 16 -1 19 -3 4 -6 -2 -5 -13z"/>
</g>
</svg>
